<?xml version="1.0" encoding="utf-8"?>
<!-- Generator: Adobe Illustrator 25.2.1, SVG Export Plug-In . SVG Version: 6.00 Build 0)  -->
<svg version="1.1" id="Layer_1" xmlns="http://www.w3.org/2000/svg" xmlns:xlink="http://www.w3.org/1999/xlink" x="0px" y="0px"
	 viewBox="0 0 300 91" style="enable-background:new 0 0 300 91;" xml:space="preserve">
<style type="text/css">
	.st0{display:none;}
	.st1{display:inline;}
	.st2{clip-path:url(#SVGID_2_);}
	.st3{fill:#FFFFFF;}
	.st4{clip-path:url(#SVGID_4_);fill:#F9004D;}
	.st5{clip-path:url(#SVGID_6_);fill:#F57722;}
	.st6{clip-path:url(#SVGID_8_);fill:#FFC20F;}
	.st7{clip-path:url(#SVGID_10_);}
	.st8{clip-path:url(#SVGID_12_);fill:#F9004D;}
	.st9{clip-path:url(#SVGID_14_);fill:#FFC20F;}
	.st10{clip-path:url(#SVGID_16_);fill:#F57722;}
	.st11{clip-path:url(#SVGID_18_);}
	.st12{clip-path:url(#SVGID_20_);fill:#F9004D;}
	.st13{clip-path:url(#SVGID_22_);fill:#F57722;}
	.st14{clip-path:url(#SVGID_24_);fill:#FFC20F;}
	.st15{clip-path:url(#SVGID_26_);}
	.st16{clip-path:url(#SVGID_28_);fill:#F9004D;}
	.st17{clip-path:url(#SVGID_30_);fill:#FFC20F;}
	.st18{clip-path:url(#SVGID_32_);fill:#F57722;}
</style>
<g id="Layer_2_1_">
</g>
<g id="Layer_1_1_" class="st0">
	<g class="st1">
		<g>
			<g>
				<defs>
					<rect id="SVGID_1_" x="4.8" y="10.1" width="290.5" height="70.7"/>
				</defs>
				<clipPath id="SVGID_2_">
					<use xlink:href="#SVGID_1_"  style="overflow:visible;"/>
				</clipPath>
				<g class="st2">
					<path class="st3" d="M87.1,56.6V31c0-2.6,1.4-3.9,4.2-3.9h17c2.8,0,4.2,1.3,4.2,3.9v25.6h-6.4l0-23.6H93.5v23.6H87.1z"/>
					<path class="st3" d="M142.3,38.9v13.8c0,2.6-1.4,3.9-4.2,3.9h-17c-2.8,0-4.2-1.3-4.2-3.9V38.9c0-2.6,1.4-3.9,4.2-3.9h17
						C140.9,34.9,142.3,36.2,142.3,38.9z M123.2,40.8v9.8H136v-9.8H123.2z"/>
					<path class="st3" d="M172.1,38.9v13.8c0,2.6-1.4,3.9-4.2,3.9h-17c-2.8,0-4.2-1.3-4.2-3.9V38.9c0-2.6,1.4-3.9,4.2-3.9h17
						C170.6,34.9,172.1,36.2,172.1,38.9z M152.9,40.8v9.8h12.7v-9.8H152.9z"/>
					<path class="st3" d="M176.3,56.6V38.9c0-2.6,1.4-3.9,4.2-3.9h12.7l-2.1,5.9h-8.5v15.7L176.3,56.6L176.3,56.6z"/>
					<path class="st3" d="M201.8,27.1l-2.1,5.9h-4.2v-5.9C195.4,27.1,201.8,27.1,201.8,27.1z M201.8,56.6V34.9h-6.4v21.6H201.8z"/>
					<path class="st3" d="M229.4,40.8h-17v2h14.9c2.8,0,4.2,1.3,4.2,3.9v5.9c0,2.6-1.4,3.9-4.2,3.9H206v-5.9l19.1,0v-2h-14.9
						c-2.8,0-4.2-1.3-4.2-3.9v-5.9c0-2.6,1.4-4,4.2-4h21.2L229.4,40.8z"/>
					<path class="st3" d="M261.3,60.5c0,2.6-1.4,3.9-4.2,3.9h-12.7l2.1-5.9h8.5v-2H240c-2.8,0-4.2-1.3-4.2-3.9V34.9h6.4v15.7h12.7
						V34.9h6.4L261.3,60.5z"/>
					<path class="st3" d="M288.9,40.8h-17v2h14.9c2.8,0,4.2,1.3,4.2,3.9v5.9c0,2.6-1.4,3.9-4.2,3.9h-21.2v-5.9l19.1,0v-2h-14.9
						c-2.8,0-4.2-1.3-4.2-3.9v-5.9c0-2.6,1.4-4,4.2-4H291L288.9,40.8z"/>
				</g>
			</g>
		</g>
		<g>
			<path class="st3" d="M90.2,67.1H89v-4.9h-1.6v-1.1h4.4v1.1h-1.6L90.2,67.1L90.2,67.1z"/>
			<path class="st3" d="M98.6,67.1h-3.4v-6h3.4v1h-2.1v1.3h2v1h-2V66h2.1V67.1z"/>
			<path class="st3" d="M104.8,62.1c-0.2,0-0.4,0-0.6,0.1c-0.2,0.1-0.3,0.2-0.5,0.4c-0.1,0.2-0.2,0.4-0.3,0.6
				c-0.1,0.2-0.1,0.5-0.1,0.8c0,0.4,0.1,0.8,0.2,1.1c0.1,0.3,0.3,0.5,0.5,0.7c0.2,0.2,0.5,0.2,0.8,0.2c0.2,0,0.5,0,0.7-0.1
				c0.2-0.1,0.5-0.1,0.8-0.2v1.1c-0.3,0.1-0.5,0.2-0.8,0.2c-0.3,0-0.5,0.1-0.8,0.1c-0.6,0-1.1-0.1-1.5-0.4c-0.4-0.3-0.7-0.6-0.9-1.1
				c-0.2-0.5-0.3-1-0.3-1.6c0-0.5,0.1-0.9,0.2-1.2c0.1-0.4,0.3-0.7,0.5-1s0.5-0.5,0.9-0.6c0.3-0.1,0.7-0.2,1.2-0.2
				c0.3,0,0.6,0,0.9,0.1c0.3,0.1,0.6,0.2,0.8,0.3l-0.4,1c-0.2-0.1-0.4-0.2-0.7-0.3S105,62.1,104.8,62.1z"/>
			<path class="st3" d="M114.8,67.1h-1.2v-2.6h-2.3v2.6H110v-6h1.2v2.3h2.3v-2.3h1.2C114.8,61.1,114.8,67.1,114.8,67.1z"/>
			<path class="st3" d="M124,67.1h-1.6l-2.6-4.5h0c0,0.2,0,0.4,0,0.6s0,0.4,0,0.6s0,0.4,0,0.6v2.8h-1.1v-6h1.6l2.6,4.5h0
				c0-0.2,0-0.4,0-0.6c0-0.2,0-0.4,0-0.5c0-0.2,0-0.4,0-0.5v-2.8h1.1C124,61.1,124,67.1,124,67.1z"/>
			<path class="st3" d="M133.2,64.1c0,0.5-0.1,0.9-0.2,1.3c-0.1,0.4-0.3,0.7-0.5,1s-0.5,0.5-0.9,0.6c-0.4,0.1-0.8,0.2-1.2,0.2
				s-0.9-0.1-1.2-0.2c-0.4-0.1-0.6-0.4-0.9-0.6s-0.4-0.6-0.5-1c-0.1-0.4-0.2-0.8-0.2-1.3c0-0.6,0.1-1.2,0.3-1.6
				c0.2-0.5,0.5-0.8,0.9-1.1c0.4-0.3,0.9-0.4,1.6-0.4c0.6,0,1.2,0.1,1.6,0.4c0.4,0.3,0.7,0.6,0.9,1.1
				C133.1,62.9,133.2,63.5,133.2,64.1z M129,64.1c0,0.4,0.1,0.8,0.2,1.1c0.1,0.3,0.3,0.5,0.5,0.7s0.5,0.2,0.9,0.2
				c0.4,0,0.6-0.1,0.9-0.2s0.4-0.4,0.5-0.7c0.1-0.3,0.2-0.7,0.2-1.1c0-0.6-0.1-1.1-0.3-1.5s-0.6-0.5-1.1-0.5c-0.4,0-0.6,0.1-0.9,0.2
				c-0.2,0.2-0.4,0.4-0.5,0.7C129,63.3,129,63.7,129,64.1z"/>
			<path class="st3" d="M136.9,67.1v-6h1.2V66h2.4v1H136.9z"/>
			<path class="st3" d="M149.4,64.1c0,0.5-0.1,0.9-0.2,1.3c-0.1,0.4-0.3,0.7-0.5,1s-0.5,0.5-0.9,0.6c-0.4,0.1-0.8,0.2-1.2,0.2
				c-0.5,0-0.9-0.1-1.2-0.2c-0.4-0.1-0.6-0.4-0.9-0.6s-0.4-0.6-0.5-1c-0.1-0.4-0.2-0.8-0.2-1.3c0-0.6,0.1-1.2,0.3-1.6
				c0.2-0.5,0.5-0.8,0.9-1.1c0.4-0.3,0.9-0.4,1.6-0.4c0.6,0,1.2,0.1,1.6,0.4c0.4,0.3,0.7,0.6,0.9,1.1
				C149.3,62.9,149.4,63.5,149.4,64.1z M145.1,64.1c0,0.4,0.1,0.8,0.2,1.1c0.1,0.3,0.3,0.5,0.5,0.7s0.5,0.2,0.9,0.2
				c0.4,0,0.6-0.1,0.9-0.2s0.4-0.4,0.5-0.7s0.2-0.7,0.2-1.1c0-0.6-0.1-1.1-0.3-1.5c-0.2-0.4-0.6-0.5-1.1-0.5c-0.4,0-0.6,0.1-0.9,0.2
				c-0.2,0.2-0.4,0.4-0.5,0.7C145.2,63.3,145.1,63.7,145.1,64.1z"/>
			<path class="st3" d="M155.3,63.7h2.3v3.1c-0.3,0.1-0.6,0.2-1,0.2c-0.3,0.1-0.7,0.1-1.1,0.1c-0.6,0-1.1-0.1-1.5-0.3
				s-0.7-0.6-0.9-1c-0.2-0.5-0.3-1-0.3-1.7c0-0.6,0.1-1.2,0.4-1.6s0.6-0.8,1-1.1s1-0.4,1.7-0.4c0.3,0,0.6,0,0.9,0.1
				c0.3,0.1,0.6,0.2,0.8,0.3l-0.4,1c-0.2-0.1-0.4-0.2-0.6-0.2s-0.5-0.1-0.7-0.1c-0.4,0-0.7,0.1-0.9,0.3c-0.3,0.2-0.5,0.4-0.6,0.7
				s-0.2,0.7-0.2,1.1c0,0.4,0.1,0.7,0.2,1s0.3,0.5,0.5,0.7c0.2,0.2,0.5,0.3,0.9,0.3c0.2,0,0.3,0,0.4,0s0.2,0,0.3-0.1v-1.2h-1.1V63.7
				z"/>
			<path class="st3" d="M161.5,67.1v-6h1.2v6H161.5z"/>
			<path class="st3" d="M170.1,67.1h-3.4v-6h3.4v1H168v1.3h2v1h-2V66h2.1V67.1z"/>
			<path class="st3" d="M177.3,65.4c0,0.4-0.1,0.7-0.3,0.9s-0.4,0.5-0.7,0.6c-0.3,0.1-0.7,0.2-1.2,0.2c-0.2,0-0.4,0-0.6,0
				c-0.2,0-0.4-0.1-0.6-0.1c-0.2-0.1-0.3-0.1-0.5-0.2v-1.2c0.3,0.1,0.6,0.2,0.9,0.3c0.3,0.1,0.6,0.2,0.9,0.2c0.2,0,0.4,0,0.5-0.1
				c0.1-0.1,0.2-0.1,0.3-0.2s0.1-0.2,0.1-0.3c0-0.1-0.1-0.3-0.1-0.4c-0.1-0.1-0.2-0.2-0.4-0.3c-0.2-0.1-0.4-0.2-0.6-0.3
				c-0.1-0.1-0.3-0.1-0.4-0.2c-0.2-0.1-0.3-0.2-0.5-0.3c-0.1-0.1-0.3-0.3-0.4-0.5c-0.1-0.2-0.1-0.4-0.1-0.7c0-0.4,0.1-0.7,0.2-0.9
				c0.2-0.3,0.4-0.4,0.7-0.6c0.3-0.1,0.7-0.2,1.1-0.2c0.3,0,0.6,0,0.9,0.1c0.3,0.1,0.6,0.2,0.9,0.3l-0.4,1c-0.3-0.1-0.5-0.2-0.7-0.3
				c-0.2-0.1-0.4-0.1-0.7-0.1c-0.2,0-0.3,0-0.4,0.1c-0.1,0.1-0.2,0.1-0.2,0.2c-0.1,0.1-0.1,0.2-0.1,0.3c0,0.1,0,0.3,0.1,0.4
				c0.1,0.1,0.2,0.2,0.4,0.3s0.4,0.2,0.6,0.3c0.3,0.1,0.6,0.3,0.8,0.5c0.2,0.2,0.4,0.3,0.5,0.6C177.2,64.8,177.3,65.1,177.3,65.4z"
				/>
			<path class="st3" d="M187.3,61.1c0.8,0,1.3,0.2,1.7,0.5c0.3,0.3,0.5,0.8,0.5,1.4c0,0.3,0,0.5-0.1,0.7c-0.1,0.2-0.2,0.4-0.4,0.6
				s-0.4,0.3-0.7,0.4c-0.3,0.1-0.7,0.2-1.1,0.2h-0.5v2.1h-1.2v-6L187.3,61.1L187.3,61.1z M187.2,62.2h-0.6v1.8h0.4
				c0.2,0,0.4,0,0.6-0.1c0.2-0.1,0.3-0.2,0.4-0.3s0.1-0.3,0.1-0.5c0-0.3-0.1-0.5-0.2-0.7C187.8,62.2,187.6,62.2,187.2,62.2z"/>
			<path class="st3" d="M197.7,61.1l-2,6h-1.4l-2-6h1.3l1.1,3.5c0,0.1,0.1,0.2,0.1,0.3c0,0.2,0.1,0.3,0.1,0.5c0,0.2,0.1,0.3,0.1,0.5
				c0-0.1,0-0.3,0.1-0.5c0-0.2,0.1-0.4,0.1-0.5c0-0.2,0.1-0.3,0.1-0.3l1.1-3.5L197.7,61.1L197.7,61.1z"/>
			<path class="st3" d="M203.1,67.1h-1.2v-4.9h-1.6v-1.1h4.4v1.1h-1.6L203.1,67.1L203.1,67.1z"/>
			<path class="st3" d="M212.7,67.1v-6h1.2V66h2.4v1H212.7z"/>
			<path class="st3" d="M222.1,67.1h-1.2v-4.9h-1.6v-1.1h4.4v1.1h-1.6L222.1,67.1L222.1,67.1z"/>
			<path class="st3" d="M232,64c0,0.7-0.1,1.2-0.4,1.7c-0.3,0.4-0.6,0.8-1.1,1c-0.5,0.2-1.1,0.3-1.7,0.3h-1.7v-6h1.8
				c0.6,0,1.2,0.1,1.6,0.3c0.5,0.2,0.8,0.5,1.1,1C231.8,62.9,232,63.4,232,64z M230.7,64.1c0-0.4-0.1-0.8-0.2-1.1
				c-0.1-0.3-0.3-0.5-0.6-0.6c-0.2-0.1-0.6-0.2-0.9-0.2h-0.7V66h0.5c0.6,0,1.1-0.2,1.4-0.5C230.5,65.2,230.7,64.7,230.7,64.1z"/>
		</g>
		<g>
			<g>
				<defs>
					<rect id="SVGID_3_" x="4.8" y="10.1" width="290.5" height="70.7"/>
				</defs>
				<clipPath id="SVGID_4_">
					<use xlink:href="#SVGID_3_"  style="overflow:visible;"/>
				</clipPath>
				<path class="st4" d="M132.8,59.6H87.3c-0.4,0-0.8-0.4-0.8-0.8s0.4-0.8,0.8-0.8h45.5c0.4,0,0.8,0.4,0.8,0.8
					C133.6,59.2,133.2,59.6,132.8,59.6"/>
			</g>
			<g>
				<defs>
					<rect id="SVGID_5_" x="4.8" y="10.1" width="290.5" height="70.7"/>
				</defs>
				<clipPath id="SVGID_6_">
					<use xlink:href="#SVGID_5_"  style="overflow:visible;"/>
				</clipPath>
				<path class="st5" d="M182.4,59.6h-45.5c-0.4,0-0.8-0.4-0.8-0.8s0.4-0.8,0.8-0.8h45.5c0.4,0,0.8,0.4,0.8,0.8
					C183.2,59.2,182.8,59.6,182.4,59.6"/>
			</g>
			<g>
				<defs>
					<rect id="SVGID_7_" x="4.8" y="10.1" width="290.5" height="70.7"/>
				</defs>
				<clipPath id="SVGID_8_">
					<use xlink:href="#SVGID_7_"  style="overflow:visible;"/>
				</clipPath>
				<path class="st6" d="M231.9,59.6h-45.5c-0.4,0-0.8-0.4-0.8-0.8s0.4-0.8,0.8-0.8h45.5c0.4,0,0.8,0.4,0.8,0.8
					C232.7,59.2,232.4,59.6,231.9,59.6"/>
			</g>
			<g>
				<defs>
					<rect id="SVGID_9_" x="4.8" y="10.1" width="290.5" height="70.7"/>
				</defs>
				<clipPath id="SVGID_10_">
					<use xlink:href="#SVGID_9_"  style="overflow:visible;"/>
				</clipPath>
				<path class="st7" d="M75.5,45.5c0,19.5-15.8,35.4-35.4,35.4S4.8,65,4.8,45.5s15.8-35.4,35.4-35.4S75.5,26,75.5,45.5"/>
			</g>
			<g>
				<defs>
					<rect id="SVGID_11_" x="4.8" y="10.1" width="290.5" height="70.7"/>
				</defs>
				<clipPath id="SVGID_12_">
					<use xlink:href="#SVGID_11_"  style="overflow:visible;"/>
				</clipPath>
				<path class="st8" d="M31.2,68.6L31.2,68.6c-3.6,0-6.5-2.9-6.5-6.5V29c0-3.6,2.9-6.5,6.5-6.5s6.5,2.9,6.5,6.5V62
					C37.7,65.6,34.7,68.6,31.2,68.6"/>
			</g>
			<g>
				<defs>
					<rect id="SVGID_13_" x="4.8" y="10.1" width="290.5" height="70.7"/>
				</defs>
				<clipPath id="SVGID_14_">
					<use xlink:href="#SVGID_13_"  style="overflow:visible;"/>
				</clipPath>
				<path class="st9" d="M49.1,52L49.1,52c-3.6,0-6.5-2.9-6.5-6.5V29c0-3.6,2.9-6.5,6.5-6.5s6.5,2.9,6.5,6.5v16.6
					C55.6,49.1,52.7,52,49.1,52"/>
			</g>
			<g>
				<defs>
					<rect id="SVGID_15_" x="4.8" y="10.1" width="290.5" height="70.7"/>
				</defs>
				<clipPath id="SVGID_16_">
					<use xlink:href="#SVGID_15_"  style="overflow:visible;"/>
				</clipPath>
				<path class="st10" d="M49.1,62.1c0,0,2.1-4.4,4.2-4.8c2.6,2.4,2.8,6.5,0.5,9.1c-2.3,2.6-6.3,2.9-8.8,0.5
					c-2.5-2.4-2.8-6.5-0.5-9.1c2-2.3,5.3-2.8,7.9-1.2C50,58.9,49.1,62.1,49.1,62.1"/>
			</g>
		</g>
	</g>
</g>
<g id="Layer_3">
	<g>
		<g>
			<g>
				<defs>
					<rect id="SVGID_17_" x="4.2" y="10" width="291.7" height="71"/>
				</defs>
				<clipPath id="SVGID_18_">
					<use xlink:href="#SVGID_17_"  style="overflow:visible;"/>
				</clipPath>
				<g class="st11">
					<path d="M86.9,56.6V30.9c0-2.6,1.4-4,4.3-4h17.1c2.8,0,4.3,1.3,4.3,4v25.7h-6.4l0-23.7H93.3v23.7
						C93.3,56.6,86.9,56.6,86.9,56.6z"/>
					<path d="M142.3,38.8v13.8c0,2.6-1.4,4-4.3,4H121c-2.8,0-4.3-1.3-4.3-4V38.8c0-2.6,1.4-4,4.3-4H138
						C140.9,34.9,142.3,36.2,142.3,38.8z M123.1,40.8v9.9h12.8v-9.9H123.1z"/>
					<path d="M172.2,38.8v13.8c0,2.6-1.4,4-4.3,4h-17.1c-2.8,0-4.3-1.3-4.3-4V38.8c0-2.6,1.4-4,4.3-4h17.1
						C170.7,34.9,172.2,36.2,172.2,38.8z M153,40.8v9.9h12.8v-9.9H153z"/>
					<path d="M176.4,56.6V38.8c0-2.6,1.4-4,4.3-4h12.8l-2.1,5.9h-8.5v15.8H176.4z"/>
					<path d="M202,27l-2.1,5.9h-4.3V27H202z M202,56.6V34.9h-6.4v21.7H202z"/>
					<path d="M229.8,40.8h-17.1v2h14.9c2.8,0,4.3,1.3,4.3,3.9v5.9c0,2.6-1.4,4-4.3,4h-21.3v-5.9l19.2,0v-2h-14.9
						c-2.8,0-4.3-1.3-4.3-3.9v-5.9c0-2.6,1.4-4,4.3-4h21.3L229.8,40.8z"/>
					<path d="M261.7,60.6c0,2.6-1.4,4-4.3,4h-12.8l2.1-5.9h8.5v-2h-14.9c-2.8,0-4.3-1.3-4.3-4V34.9h6.4v15.8h12.8V34.9h6.4
						L261.7,60.6z"/>
					<path d="M289.5,40.8h-17.1v2h14.9c2.8,0,4.3,1.3,4.3,3.9v5.9c0,2.6-1.4,4-4.3,4H266v-5.9l19.2,0v-2h-14.9
						c-2.8,0-4.3-1.3-4.3-3.9v-5.9c0-2.6,1.4-4,4.3-4h21.3L289.5,40.8z"/>
				</g>
			</g>
		</g>
		<g>
			<path d="M90.6,67.2h-1.3v-4.9h-1.6v-1.1h4.5v1.1h-1.6L90.6,67.2L90.6,67.2z"/>
			<path d="M99,67.2h-3.4v-6H99v1h-2.1v1.3h2v1h-2v1.5H99L99,67.2L99,67.2z"/>
			<path d="M105.2,62.2c-0.2,0-0.5,0-0.6,0.1c-0.2,0.1-0.3,0.2-0.5,0.4c-0.1,0.2-0.2,0.4-0.3,0.6c-0.1,0.2-0.1,0.5-0.1,0.8
				c0,0.4,0.1,0.8,0.2,1.1c0.1,0.3,0.3,0.5,0.5,0.7c0.2,0.2,0.5,0.2,0.8,0.2c0.2,0,0.5,0,0.7-0.1c0.2-0.1,0.5-0.1,0.8-0.2v1.1
				c-0.3,0.1-0.5,0.2-0.8,0.2c-0.3,0-0.5,0.1-0.9,0.1c-0.6,0-1.1-0.1-1.5-0.4c-0.4-0.3-0.7-0.6-0.9-1.1s-0.3-1-0.3-1.6
				c0-0.5,0.1-0.9,0.2-1.2s0.3-0.7,0.5-1c0.2-0.3,0.5-0.5,0.9-0.6c0.3-0.2,0.7-0.2,1.2-0.2c0.3,0,0.6,0,0.9,0.1
				c0.3,0.1,0.6,0.2,0.8,0.3l-0.4,1c-0.2-0.1-0.4-0.2-0.7-0.3C105.6,62.2,105.4,62.2,105.2,62.2z"/>
			<path d="M115.3,67.2H114v-2.6h-2.3v2.6h-1.3v-6h1.3v2.3h2.3v-2.3h1.2V67.2z"/>
			<path d="M124.5,67.2h-1.6l-2.6-4.5h0c0,0.2,0,0.4,0,0.6c0,0.2,0,0.4,0,0.6s0,0.4,0,0.6v2.8h-1.1v-6h1.6l2.6,4.5h0
				c0-0.2,0-0.4,0-0.6c0-0.2,0-0.4,0-0.5c0-0.2,0-0.4,0-0.5v-2.8h1.1L124.5,67.2L124.5,67.2z"/>
			<path d="M133.8,64.2c0,0.5-0.1,0.9-0.2,1.3c-0.1,0.4-0.3,0.7-0.5,1c-0.2,0.3-0.5,0.5-0.9,0.6c-0.4,0.1-0.8,0.2-1.3,0.2
				s-0.9-0.1-1.3-0.2s-0.6-0.4-0.9-0.6c-0.2-0.3-0.4-0.6-0.5-1s-0.2-0.8-0.2-1.3c0-0.6,0.1-1.2,0.3-1.6c0.2-0.5,0.5-0.8,0.9-1.1
				c0.4-0.3,0.9-0.4,1.6-0.4c0.6,0,1.2,0.1,1.6,0.4c0.4,0.3,0.7,0.6,0.9,1.1C133.7,63,133.8,63.5,133.8,64.2z M129.5,64.2
				c0,0.4,0.1,0.8,0.2,1.1c0.1,0.3,0.3,0.5,0.5,0.7s0.5,0.2,0.9,0.2c0.4,0,0.6-0.1,0.9-0.2s0.4-0.4,0.5-0.7c0.1-0.3,0.2-0.7,0.2-1.1
				c0-0.6-0.1-1.1-0.3-1.5c-0.2-0.4-0.6-0.5-1.1-0.5c-0.4,0-0.6,0.1-0.9,0.2c-0.2,0.2-0.4,0.4-0.5,0.7S129.5,63.7,129.5,64.2z"/>
			<path d="M137.5,67.2v-6h1.3v4.9h2.4v1L137.5,67.2L137.5,67.2z"/>
			<path d="M150,64.2c0,0.5-0.1,0.9-0.2,1.3c-0.1,0.4-0.3,0.7-0.5,1c-0.2,0.3-0.5,0.5-0.9,0.6c-0.4,0.1-0.8,0.2-1.3,0.2
				s-0.9-0.1-1.3-0.2s-0.6-0.4-0.9-0.6c-0.2-0.3-0.4-0.6-0.5-1s-0.2-0.8-0.2-1.3c0-0.6,0.1-1.2,0.3-1.6c0.2-0.5,0.5-0.8,0.9-1.1
				c0.4-0.3,0.9-0.4,1.6-0.4c0.6,0,1.2,0.1,1.6,0.4c0.4,0.3,0.7,0.6,0.9,1.1S150,63.5,150,64.2z M145.7,64.2c0,0.4,0.1,0.8,0.2,1.1
				c0.1,0.3,0.3,0.5,0.5,0.7s0.5,0.2,0.9,0.2c0.4,0,0.6-0.1,0.9-0.2s0.4-0.4,0.5-0.7c0.1-0.3,0.2-0.7,0.2-1.1c0-0.6-0.1-1.1-0.3-1.5
				c-0.2-0.4-0.6-0.5-1.1-0.5c-0.4,0-0.6,0.1-0.9,0.2s-0.4,0.4-0.5,0.7S145.7,63.7,145.7,64.2z"/>
			<path d="M156,63.8h2.3v3.1c-0.3,0.1-0.6,0.2-1,0.2c-0.3,0.1-0.7,0.1-1.1,0.1c-0.6,0-1.1-0.1-1.5-0.4c-0.4-0.2-0.7-0.6-0.9-1
				s-0.3-1-0.3-1.7c0-0.6,0.1-1.2,0.4-1.6s0.6-0.8,1-1.1c0.5-0.3,1-0.4,1.7-0.4c0.3,0,0.6,0,0.9,0.1s0.6,0.2,0.8,0.3l-0.4,1
				c-0.2-0.1-0.4-0.2-0.6-0.2c-0.2-0.1-0.5-0.1-0.7-0.1c-0.4,0-0.7,0.1-0.9,0.3c-0.3,0.2-0.5,0.4-0.6,0.7c-0.1,0.3-0.2,0.7-0.2,1.1
				c0,0.4,0.1,0.7,0.2,1c0.1,0.3,0.3,0.5,0.5,0.7c0.2,0.2,0.5,0.3,0.9,0.3c0.2,0,0.3,0,0.5,0c0.1,0,0.2,0,0.3-0.1v-1.2h-1.1
				L156,63.8L156,63.8z"/>
			<path d="M162.2,67.2v-6h1.3v6H162.2z"/>
			<path d="M170.8,67.2h-3.4v-6h3.4v1h-2.1v1.3h2v1h-2v1.5h2.1V67.2z"/>
			<path d="M178,65.5c0,0.4-0.1,0.7-0.3,0.9c-0.2,0.3-0.4,0.5-0.7,0.6c-0.3,0.1-0.7,0.2-1.2,0.2c-0.2,0-0.4,0-0.6,0
				s-0.4-0.1-0.6-0.1c-0.2-0.1-0.4-0.1-0.5-0.2v-1.2c0.3,0.1,0.6,0.2,0.9,0.3c0.3,0.1,0.6,0.2,0.9,0.2c0.2,0,0.4,0,0.5-0.1
				s0.2-0.1,0.3-0.2c0.1-0.1,0.1-0.2,0.1-0.3c0-0.2-0.1-0.3-0.1-0.4s-0.2-0.2-0.4-0.3s-0.4-0.2-0.6-0.3c-0.1-0.1-0.3-0.1-0.4-0.2
				c-0.2-0.1-0.3-0.2-0.5-0.3c-0.1-0.1-0.3-0.3-0.4-0.5c-0.1-0.2-0.1-0.4-0.1-0.7c0-0.4,0.1-0.7,0.2-0.9c0.2-0.3,0.4-0.4,0.7-0.6
				c0.3-0.1,0.7-0.2,1.1-0.2c0.3,0,0.6,0,0.9,0.1c0.3,0.1,0.6,0.2,0.9,0.3l-0.4,1c-0.3-0.1-0.5-0.2-0.7-0.3s-0.4-0.1-0.7-0.1
				c-0.2,0-0.3,0-0.4,0.1c-0.1,0.1-0.2,0.1-0.2,0.2c-0.1,0.1-0.1,0.2-0.1,0.3c0,0.1,0,0.3,0.1,0.4s0.2,0.2,0.4,0.3
				c0.2,0.1,0.4,0.2,0.6,0.3c0.3,0.1,0.6,0.3,0.8,0.5c0.2,0.2,0.4,0.3,0.5,0.6C177.9,64.9,178,65.2,178,65.5z"/>
			<path d="M188,61.2c0.8,0,1.3,0.2,1.7,0.5c0.4,0.3,0.5,0.8,0.5,1.4c0,0.3,0,0.5-0.1,0.8c-0.1,0.2-0.2,0.5-0.4,0.6
				c-0.2,0.2-0.4,0.3-0.7,0.4c-0.3,0.1-0.7,0.2-1.1,0.2h-0.5v2.1h-1.3v-6C186.2,61.2,188,61.2,188,61.2z M188,62.2h-0.6V64h0.4
				c0.2,0,0.4,0,0.6-0.1c0.2-0.1,0.3-0.2,0.4-0.3s0.1-0.3,0.1-0.5c0-0.3-0.1-0.5-0.2-0.7C188.6,62.3,188.3,62.2,188,62.2z"/>
			<path d="M198.5,61.2l-2,6h-1.4l-2-6h1.3l1.1,3.6c0,0.1,0.1,0.2,0.1,0.3s0.1,0.3,0.1,0.5c0,0.2,0.1,0.3,0.1,0.5
				c0-0.1,0-0.3,0.1-0.5c0-0.2,0.1-0.4,0.1-0.5c0-0.2,0.1-0.3,0.1-0.3l1.1-3.6L198.5,61.2L198.5,61.2z"/>
			<path d="M204,67.2h-1.3v-4.9h-1.6v-1.1h4.5v1.1H204L204,67.2L204,67.2z"/>
			<path d="M213.6,67.2v-6h1.3v4.9h2.4v1L213.6,67.2L213.6,67.2z"/>
			<path d="M223,67.2h-1.3v-4.9h-1.6v-1.1h4.5v1.1H223L223,67.2L223,67.2z"/>
			<path d="M232.9,64.1c0,0.7-0.1,1.2-0.4,1.7c-0.3,0.5-0.6,0.8-1.1,1c-0.5,0.2-1.1,0.3-1.7,0.3H228v-6h1.9c0.6,0,1.2,0.1,1.6,0.3
				c0.5,0.2,0.8,0.6,1.1,1S232.9,63.5,232.9,64.1z M231.6,64.1c0-0.4-0.1-0.8-0.2-1.1c-0.1-0.3-0.3-0.5-0.6-0.6
				c-0.2-0.1-0.6-0.2-0.9-0.2h-0.7v3.9h0.5c0.6,0,1.1-0.2,1.4-0.5C231.4,65.3,231.6,64.8,231.6,64.1z"/>
		</g>
		<g>
			<g>
				<defs>
					<rect id="SVGID_19_" x="4.2" y="10" width="291.7" height="71"/>
				</defs>
				<clipPath id="SVGID_20_">
					<use xlink:href="#SVGID_19_"  style="overflow:visible;"/>
				</clipPath>
				<path class="st12" d="M132.7,59.6H87.1c-0.4,0-0.8-0.4-0.8-0.8s0.4-0.8,0.8-0.8h45.7c0.4,0,0.8,0.4,0.8,0.8
					S133.2,59.6,132.7,59.6"/>
			</g>
			<g>
				<defs>
					<rect id="SVGID_21_" x="4.2" y="10" width="291.7" height="71"/>
				</defs>
				<clipPath id="SVGID_22_">
					<use xlink:href="#SVGID_21_"  style="overflow:visible;"/>
				</clipPath>
				<path class="st13" d="M182.5,59.6h-45.7c-0.4,0-0.8-0.4-0.8-0.8s0.4-0.8,0.8-0.8h45.7c0.4,0,0.8,0.4,0.8,0.8
					S182.9,59.6,182.5,59.6"/>
			</g>
			<g>
				<defs>
					<rect id="SVGID_23_" x="4.2" y="10" width="291.7" height="71"/>
				</defs>
				<clipPath id="SVGID_24_">
					<use xlink:href="#SVGID_23_"  style="overflow:visible;"/>
				</clipPath>
				<path class="st14" d="M232.3,59.6h-45.7c-0.4,0-0.8-0.4-0.8-0.8s0.4-0.8,0.8-0.8h45.7c0.4,0,0.8,0.4,0.8,0.8
					S232.7,59.6,232.3,59.6"/>
			</g>
			<g>
				<defs>
					<rect id="SVGID_25_" x="4.2" y="10" width="291.7" height="71"/>
				</defs>
				<clipPath id="SVGID_26_">
					<use xlink:href="#SVGID_25_"  style="overflow:visible;"/>
				</clipPath>
				<path class="st15" d="M75.2,45.5C75.2,65.1,59.3,81,39.7,81C20.1,81,4.2,65.1,4.2,45.5C4.2,25.9,20.1,10,39.7,10
					C59.3,10,75.2,25.9,75.2,45.5"/>
			</g>
			<g>
				<defs>
					<rect id="SVGID_27_" x="4.2" y="10" width="291.7" height="71"/>
				</defs>
				<clipPath id="SVGID_28_">
					<use xlink:href="#SVGID_27_"  style="overflow:visible;"/>
				</clipPath>
				<path class="st16" d="M30.7,68.7L30.7,68.7c-3.6,0-6.6-2.9-6.6-6.6V28.9c0-3.6,2.9-6.6,6.6-6.6s6.6,2.9,6.6,6.6v33.2
					C37.2,65.7,34.3,68.7,30.7,68.7"/>
			</g>
			<g>
				<defs>
					<rect id="SVGID_29_" x="4.2" y="10" width="291.7" height="71"/>
				</defs>
				<clipPath id="SVGID_30_">
					<use xlink:href="#SVGID_29_"  style="overflow:visible;"/>
				</clipPath>
				<path class="st17" d="M48.6,52.1L48.6,52.1c-3.6,0-6.6-2.9-6.6-6.6V28.9c0-3.6,2.9-6.6,6.6-6.6s6.6,2.9,6.6,6.6v16.6
					C55.2,49.1,52.3,52.1,48.6,52.1"/>
			</g>
			<g>
				<defs>
					<rect id="SVGID_31_" x="4.2" y="10" width="291.7" height="71"/>
				</defs>
				<clipPath id="SVGID_32_">
					<use xlink:href="#SVGID_31_"  style="overflow:visible;"/>
				</clipPath>
				<path class="st18" d="M48.6,62.2c0,0,2.1-4.4,4.2-4.8c2.6,2.4,2.8,6.5,0.5,9.2C51,69.2,47,69.4,44.4,67
					c-2.6-2.4-2.8-6.5-0.5-9.2c2-2.3,5.3-2.8,7.9-1.2C49.6,58.9,48.6,62.2,48.6,62.2"/>
			</g>
		</g>
	</g>
</g>
</svg>
